# Blender v2.79 (sub 0) OBJ File: 'characterModel + riggedModel.blend'
# www.blender.org
mtllib legRU.mtl
o Cube.025
v -1.353803 -1.265714 0.136828
v -1.359761 -0.670313 0.127660
v -1.386731 -0.667669 -0.022277
v -1.379914 -1.263439 0.002896
v -1.257012 -1.290869 0.253549
v -1.257445 -0.699711 0.262211
v -0.599423 -1.343184 0.331472
v -0.538578 -0.750933 0.370943
v -0.807804 -0.803872 0.409198
v -0.840709 -1.384805 0.368976
v -0.388253 -1.228307 0.261931
v -0.293613 -0.626173 0.291570
v -0.672559 -1.995543 0.282415
v -0.501632 -1.924008 0.215512
v -0.879220 -1.991634 0.323866
v -1.069497 -1.335858 -0.343382
v -1.056599 -0.759237 -0.386366
v -0.808135 -0.765734 -0.405636
v -0.840437 -1.340679 -0.372992
v -1.253810 -1.297927 -0.252767
v -1.253896 -0.712916 -0.298498
v -0.875098 -1.910253 -0.357846
v -1.080345 -1.895845 -0.311874
v -0.224101 -0.952410 0.042587
v -0.083166 -0.361570 0.043923
v -0.043613 -0.333473 0.112241
v -0.195306 -0.921008 0.109463
v -0.256591 -0.987842 -0.032868
v -0.403188 -1.138168 -0.186956
v -0.314227 -0.537964 -0.190652
v -0.127795 -0.393273 -0.033159
v -0.405576 -1.671031 -0.069569
v -0.505429 -1.787970 -0.217119
v -0.371753 -1.625063 0.071858
v -0.387645 -1.646662 0.005406
v -0.029759 -0.027516 0.009560
v -0.017215 0.155897 -0.049744
v 0.019726 0.149193 0.038631
v 0.010163 -0.016182 0.085193
v -0.074803 -0.040305 -0.075775
v -0.265935 -0.133758 -0.243720
v -0.236288 0.134243 -0.333023
v -0.058897 0.163461 -0.149456
v -1.023017 -0.232684 -0.432897
v -0.973134 0.235373 -0.483639
v -0.724396 0.126344 -0.528171
v -0.769783 -0.275528 -0.459194
v -1.223770 -0.160836 -0.335684
v -1.170735 0.357759 -0.369443
v -0.505195 -0.352715 0.388654
v -0.455173 -0.048178 0.404130
v -0.723249 0.042479 0.443589
v -0.777220 -0.348500 0.429160
v -0.255305 -0.277923 0.299584
v -0.214866 -0.051786 0.306710
v -1.332021 -0.113045 0.120933
v -1.275947 0.425359 0.116751
v -1.301451 0.432801 -0.052299
v -1.357882 -0.108583 -0.039755
v -1.230342 -0.156192 0.266250
v -1.175039 0.360998 0.269579
v -0.508882 -2.290953 -0.067765
v -0.499788 -2.291919 -0.005579
v -0.519142 -2.289863 -0.137928
v -0.593560 -2.340979 -0.265631
v -1.107779 -2.372496 -0.299774
v -0.920519 -2.384348 -0.356780
v -1.262520 -2.353561 -0.200188
v -1.248388 -1.862571 -0.214620
v -0.742821 -2.574090 0.235946
v -0.926624 -2.524694 0.289238
v -0.596158 -2.552965 0.157160
v -1.349939 -2.346319 0.142454
v -1.341435 -1.843100 0.143429
v -1.365802 -1.839984 0.024184
v -1.372771 -2.341394 0.030008
v -1.113905 -2.446841 0.285204
v -1.085492 -1.934354 0.306915
v -1.252515 -1.869558 0.242967
v -1.267426 -2.375671 0.233167
v -0.738235 -2.373159 -0.341991
v -0.672696 -1.871001 -0.319736
v -1.032172 -0.258835 0.378675
v -0.977006 0.206122 0.388632
v -1.060441 -0.765514 0.364505
v -0.507508 -0.227359 -0.383831
v -0.468451 0.107252 -0.468614
v -0.550845 -0.677046 -0.327605
v -0.608069 -1.265279 -0.310590
v -1.072942 -1.348966 0.336967
v -1.347240 -2.343501 -0.087233
v -1.339165 -1.845211 -0.098884
v -0.520303 -2.419265 0.084718
v -0.402566 -1.754952 0.156105
v -1.328595 -0.121991 -0.198299
v -1.273278 0.416919 -0.220014
v -1.344120 -0.114883 -0.114249
v -1.373086 -0.674464 -0.092030
v -1.357692 -0.682132 -0.170732
v -0.066762 -0.130566 0.204371
v -0.044415 0.045724 0.187781
v -0.113754 -0.449063 0.212910
v -0.246370 -1.044374 0.197829
v -1.351931 -1.273982 -0.132155
v -1.366765 -1.268392 -0.060560
v -1.353287 -1.842441 -0.033641
v -1.288213 0.425337 -0.131102
v -0.493837 -1.285745 0.296701
v -0.416096 -0.688553 0.331257
v -0.587095 -1.959775 0.248963
v -0.380249 -0.315319 0.344119
v -0.665896 -2.357069 -0.303811
v -0.589064 -1.829485 -0.268427
v -0.386722 -0.180557 -0.313775
v -0.432537 -0.607507 -0.259129
v -0.505630 -1.201725 -0.248773
v -0.352369 0.120748 -0.400819
v -0.335020 -0.049982 0.355420
v -1.360777 -2.342384 -0.025080
v -0.669488 -2.563525 0.196553
vt 0.948281 0.598427
vt 0.918148 0.396358
vt 0.952741 0.396304
vt 0.984696 0.589744
vt 0.217142 0.441943
vt 0.141076 0.612191
vt 0.157328 0.415237
vt 0.268701 0.490997
vt 0.207357 0.644222
vt 0.269922 0.251063
vt 0.226750 0.218707
vt 0.425611 0.397303
vt 0.485473 0.592361
vt 0.426600 0.593768
vt 0.376077 0.584835
vt 0.482081 0.786051
vt 0.428410 0.784322
vt 0.640679 0.732489
vt 0.639557 0.537448
vt 0.658365 0.527540
vt 0.679585 0.516362
vt 0.718102 0.667958
vt 0.663266 0.721884
vt 0.707341 0.281396
vt 0.730340 0.462815
vt 0.670016 0.293935
vt 0.687554 0.288043
vt 0.641327 0.847986
vt 0.628520 0.908752
vt 0.619676 0.851582
vt 0.665756 0.843929
vt 0.739504 0.901082
vt 0.680240 0.915166
vt 0.723013 0.807126
vt 0.620661 0.741888
vt 0.430494 0.217510
vt 0.505797 0.090643
vt 0.495703 0.228808
vt 0.375208 0.197401
vt 0.440263 0.057274
vt 0.371851 0.385602
vt 0.199303 0.884647
vt 0.130195 0.766658
vt 0.199455 0.779674
vt 0.263178 0.817142
vt 0.267412 0.698301
vt 0.943546 0.971123
vt 0.903869 0.788560
vt 0.945266 0.787865
vt 0.984696 0.950626
vt 0.984451 0.774550
vt 0.909601 0.598537
vt 0.705687 0.067024
vt 0.721417 0.068902
vt 0.739164 0.071020
vt 0.752313 0.241519
vt 0.475575 0.947190
vt 0.425991 0.946383
vt 0.382726 0.943776
vt 0.184032 0.027584
vt 0.234123 0.020383
vt 0.273953 0.034329
vt 0.956620 0.200338
vt 0.928820 0.030433
vt 0.957892 0.029371
vt 0.121736 0.216705
vt 0.098159 0.057704
vt 0.135409 0.043209
vt 0.173474 0.209225
vt 0.520665 0.941825
vt 0.530959 0.771481
vt 0.062661 0.940629
vt 0.021473 0.803349
vt 0.067283 0.781750
vt 0.127809 0.900774
vt 0.080326 0.610327
vt 0.035592 0.619817
vt 0.791746 0.882863
vt 0.777762 0.766334
vt 0.557981 0.211414
vt 0.567847 0.095757
vt 0.549436 0.365477
vt 0.772112 0.612220
vt 0.778386 0.412499
vt 0.540489 0.565766
vt 0.488947 0.396490
vt 0.791746 0.207400
vt 0.058537 0.421788
vt 0.100926 0.413861
vt 0.082121 0.228129
vt 0.899551 0.029457
vt 0.867589 0.193042
vt 0.872620 0.026246
vt 0.653522 0.246039
vt 0.686855 0.020383
vt 0.864217 0.783613
vt 0.822353 0.947077
vt 0.831588 0.770685
vt 0.885238 0.786236
vt 0.340091 0.379071
vt 0.342702 0.188361
vt 0.309483 0.875409
vt 0.264132 0.895205
vt 0.598911 0.865477
vt 0.598455 0.804925
vt 0.309483 0.766311
vt 0.300341 0.559419
vt 0.603346 0.695857
vt 0.623694 0.490379
vt 0.291347 0.312206
vt 0.346114 0.580404
vt 0.892174 0.596063
vt 0.902305 0.394529
vt 0.925794 0.200747
vt 0.353904 0.774560
vt 0.884431 0.392465
vt 0.911361 0.199784
vt 0.872511 0.593270
vt 0.858023 0.966969
vt 0.652821 0.911766
vt 0.984495 0.388951
vt 0.237384 0.671262
vt 0.242921 0.466470
vt 0.381748 0.776944
vt 0.231317 0.798408
vt 0.983848 0.192415
vt 0.549403 0.757673
vt 0.553504 0.931097
vt 0.537085 0.936461
vt 0.750387 0.786730
vt 0.745107 0.640088
vt 0.754363 0.437656
vt 0.772030 0.224460
vt 0.895077 0.198697
vt 0.291793 0.082142
vt 0.248336 0.234885
vt 0.384530 0.020383
vt 0.900021 0.972800
vt 0.776610 0.053890
vt 0.015304 0.979617
vt 0.309287 0.935404
vt 0.880288 0.970059
vt 0.982755 0.020383
vt 0.567847 0.743866
vt 0.765625 0.891973
vt 0.231717 0.889926
vn -0.9838 -0.0042 0.1790
vn -0.9820 -0.0064 0.1890
vn -0.9815 -0.0069 0.1912
vn -0.7750 -0.0080 0.6319
vn -0.7922 -0.0003 0.6103
vn -0.7959 0.0014 0.6055
vn 0.1635 -0.0785 0.9834
vn 0.1583 -0.0806 0.9841
vn 0.1662 -0.0775 0.9831
vn 0.3579 -0.0993 0.9285
vn 0.3543 -0.1007 0.9297
vn 0.3593 -0.0988 0.9280
vn 0.3743 -0.1205 0.9194
vn 0.3973 -0.1149 0.9105
vn 0.3696 -0.1217 0.9212
vn 0.1734 -0.0912 0.9806
vn 0.1884 -0.0868 0.9783
vn 0.1685 -0.0927 0.9813
vn -0.0909 -0.0567 -0.9942
vn -0.1164 -0.0661 -0.9910
vn -0.1293 -0.0708 -0.9891
vn -0.4432 -0.0596 -0.8944
vn -0.4259 -0.0678 -0.9022
vn -0.4498 -0.0564 -0.8913
vn -0.1496 -0.0257 -0.9884
vn -0.1987 -0.0426 -0.9791
vn -0.2217 -0.0505 -0.9738
vn 0.8838 -0.2252 -0.4100
vn 0.9266 -0.2214 -0.3041
vn 0.9292 -0.2210 -0.2963
vn 0.7610 -0.1257 -0.6364
vn 0.7184 -0.1465 -0.6800
vn 0.7043 -0.1529 -0.6932
vn 0.8512 -0.1165 -0.5117
vn 0.7926 -0.1346 -0.5947
vn 0.7812 -0.1376 -0.6089
vn 0.9314 -0.2172 -0.2921
vn 0.9616 -0.2183 -0.1663
vn 0.9628 -0.2183 -0.1593
vn 0.8876 -0.1787 -0.4246
vn 0.8962 -0.1846 -0.4034
vn 0.8813 -0.1746 -0.4390
vn 0.7095 -0.2902 -0.6422
vn 0.7094 -0.2903 -0.6423
vn 0.7112 -0.2875 -0.6415
vn 0.7065 -0.1794 -0.6846
vn 0.7034 -0.1829 -0.6869
vn 0.6986 -0.1882 -0.6903
vn 0.8803 -0.1860 -0.4365
vn 0.8814 -0.1857 -0.4344
vn 0.8814 -0.1852 -0.4345
vn -0.1580 -0.1284 -0.9791
vn -0.1852 -0.1052 -0.9770
vn -0.1278 -0.1537 -0.9798
vn -0.4651 -0.0360 -0.8845
vn -0.4893 -0.0161 -0.8720
vn -0.4494 -0.0488 -0.8920
vn -0.4393 -0.0400 -0.8975
vn -0.4241 -0.0492 -0.9043
vn -0.4459 -0.0359 -0.8943
vn -0.1062 -0.0862 -0.9906
vn -0.0909 -0.0953 -0.9913
vn -0.1163 -0.0801 -0.9900
vn 0.1345 -0.0618 0.9890
vn 0.1371 -0.0646 0.9884
vn 0.1458 -0.0741 0.9865
vn 0.3670 -0.1015 0.9247
vn 0.3620 -0.1065 0.9261
vn 0.3465 -0.0642 0.9359
vn 0.3440 -0.0664 0.9366
vn 0.3511 -0.0601 0.9344
vn 0.1479 -0.0551 0.9875
vn 0.1492 -0.0543 0.9873
vn 0.1462 -0.0562 0.9877
vn -0.9824 0.1055 0.1544
vn -0.9817 0.1040 0.1593
vn -0.9815 0.1035 0.1608
vn -0.8067 0.0837 0.5850
vn -0.8119 0.0879 0.5772
vn -0.8135 0.0892 0.5747
vn -0.7957 0.0374 0.6045
vn -0.8083 0.0452 0.5870
vn -0.8118 0.0474 0.5821
vn -0.9851 0.0551 0.1631
vn -0.9833 0.0519 0.1746
vn -0.9828 0.0511 0.1777
vn 0.9705 -0.1625 -0.1780
vn 0.9749 -0.1669 -0.1471
vn 0.9751 -0.1666 -0.1464
vn 0.8740 -0.0989 -0.4757
vn 0.7814 -0.0761 -0.6193
vn 0.8596 -0.1025 -0.5005
vn -0.2360 0.0121 -0.9717
vn -0.2723 -0.0006 -0.9622
vn -0.2917 -0.0075 -0.9565
vn -0.5312 0.0047 -0.8472
vn -0.5110 -0.0063 -0.8595
vn -0.5403 0.0097 -0.8414
vn 0.3340 -0.1201 0.9349
vn 0.2385 -0.1021 0.9658
vn 0.3683 -0.1188 0.9221
vn 0.5777 -0.1459 0.8031
vn -0.9796 0.0160 0.2004
vn -0.9999 0.0139 -0.0035
vn -0.9797 0.0162 0.1996
vn -0.3544 -0.0102 0.9350
vn -0.3359 -0.0189 0.9417
vn -0.3299 -0.0217 0.9438
vn -0.0567 -0.0554 0.9969
vn -0.0820 -0.0423 0.9957
vn -0.0921 -0.0371 0.9951
vn 0.2609 -0.0111 -0.9653
vn 0.1607 0.0137 -0.9869
vn 0.4041 -0.0056 -0.9147
vn -0.4852 0.0442 0.8733
vn -0.4810 0.0405 0.8758
vn -0.4781 0.0379 0.8775
vn -0.2019 -0.0040 0.9794
vn -0.2053 -0.0004 0.9787
vn -0.2093 0.0039 0.9779
vn -0.1857 -0.0262 0.9823
vn -0.1936 -0.0206 0.9809
vn -0.1997 -0.0163 0.9797
vn -0.4803 0.0137 0.8770
vn -0.4674 0.0053 0.8840
vn -0.4606 0.0009 0.8876
vn 0.5321 -0.2938 -0.7941
vn 0.5361 -0.2895 -0.7930
vn 0.5585 -0.2644 -0.7863
vn 0.2668 -0.2193 -0.9385
vn 0.2441 -0.2343 -0.9410
vn 0.2001 -0.2625 -0.9440
vn 0.3187 -0.1338 -0.9384
vn 0.3079 -0.1405 -0.9410
vn 0.2980 -0.1467 -0.9432
vn 0.5503 -0.1664 -0.8182
vn 0.5554 -0.1618 -0.8157
vn 0.5618 -0.1557 -0.8125
vn 0.5391 -0.0830 -0.8381
vn 0.5466 -0.0793 -0.8337
vn 0.5499 -0.0776 -0.8316
vn 0.2870 -0.0669 -0.9556
vn 0.3013 -0.0604 -0.9516
vn 0.3078 -0.0574 -0.9497
vn 0.2084 -0.0322 -0.9775
vn 0.2497 -0.0182 -0.9681
vn 0.2634 -0.0135 -0.9646
vn 0.5369 -0.0452 -0.8424
vn 0.5381 -0.0449 -0.8417
vn 0.5384 -0.0447 -0.8415
vn -0.4558 -0.0174 0.8899
vn -0.4307 -0.0293 0.9020
vn -0.4214 -0.0337 0.9063
vn -0.1544 -0.0556 0.9864
vn -0.1719 -0.0468 0.9840
vn -0.1803 -0.0425 0.9827
vn -0.1099 -0.0631 0.9919
vn -0.1343 -0.0519 0.9896
vn -0.1436 -0.0477 0.9885
vn -0.4094 -0.0235 0.9121
vn -0.3799 -0.0359 0.9243
vn -0.3707 -0.0397 0.9279
vn -0.9075 0.0076 -0.4201
vn -0.7892 -0.0005 -0.6142
vn -0.7997 0.0054 -0.6003
vn 0.9846 -0.1741 -0.0139
vn 0.9798 -0.1931 0.0522
vn 0.9848 -0.1725 -0.0195
vn -0.7937 0.0448 -0.6066
vn -0.8076 0.0563 -0.5871
vn -0.7888 0.0407 -0.6133
vn -0.9815 0.0447 -0.1860
vn -0.9799 0.0431 -0.1949
vn -0.9817 0.0449 -0.1852
vn -0.7904 0.0093 -0.6125
vn -0.7795 0.0020 -0.6264
vn -0.7934 0.0113 -0.6086
vn 0.5497 -0.0499 0.8339
vn 0.5415 -0.0703 0.8378
vn 0.5205 -0.1197 0.8454
vn 0.8850 0.0087 0.4656
vn 0.8826 -0.0009 0.4701
vn 0.8649 -0.0628 0.4980
vn 0.8782 -0.1111 0.4653
vn 0.8742 -0.1145 0.4719
vn 0.8798 -0.1097 0.4626
vn 0.4712 -0.0561 0.8803
vn 0.4656 -0.0620 0.8828
vn 0.4794 -0.0472 0.8763
vn 0.5343 -0.1270 0.8357
vn 0.5095 -0.1330 0.8502
vn 0.5392 -0.1257 0.8327
vn 0.9422 -0.2185 0.2540
vn 0.9070 -0.2335 0.3504
vn 0.9453 -0.2168 0.2437
vn 0.9503 -0.2465 0.1904
vn 0.9753 -0.2182 0.0353
vn 0.9476 -0.2482 0.2011
vn 0.5932 -0.1741 0.7860
vn 0.6849 -0.1614 0.7105
vn 0.5848 -0.1751 0.7921
vn -0.7818 -0.0528 -0.6213
vn -0.7807 -0.0483 -0.6231
vn -0.7783 -0.0499 -0.6259
vn -0.9795 -0.0210 -0.2005
vn -0.9815 -0.0199 -0.1905
vn -0.9794 -0.0218 -0.2007
vn -0.9791 -0.0319 -0.2007
vn -0.9773 -0.0327 -0.2094
vn -0.9792 -0.0314 -0.2005
vn -0.7879 -0.0497 -0.6138
vn -0.9790 -0.0325 -0.2011
vn -0.9772 -0.0334 -0.2097
vn -0.9814 -0.0207 -0.1909
vn -0.9793 -0.0226 -0.2011
vn -0.9816 0.0433 -0.1860
vn -0.9800 0.0415 -0.1947
vn -0.9818 0.0435 -0.1850
vn -0.9780 0.0931 -0.1869
vn -0.9799 0.0957 -0.1752
vn -0.9777 0.0928 -0.1884
vn 0.9707 -0.1623 -0.1774
vn 0.9759 -0.1630 -0.1452
vn 0.8804 -0.1855 -0.4364
vn 0.8816 -0.1848 -0.4344
vn 0.8840 -0.2036 -0.4208
vn 0.8917 -0.2084 -0.4017
vn 0.8785 -0.2003 -0.4337
vn 0.9327 -0.2029 -0.2982
vn 0.9639 -0.2018 -0.1736
vn 0.9654 -0.2016 -0.1653
vn 0.8850 -0.2088 -0.4162
vn 0.9274 -0.2024 -0.3146
vn 0.9304 -0.2017 -0.3059
vn -0.7515 -0.0166 0.6596
vn -0.7676 -0.0104 0.6408
vn -0.7707 -0.0092 0.6371
vn -0.9812 -0.0172 0.1922
vn -0.9799 -0.0185 0.1985
vn -0.9797 -0.0187 0.1997
vn 0.3594 -0.1006 0.9277
vn 0.3528 -0.0998 0.9303
vn 0.3595 -0.1003 0.9277
vn 0.3690 -0.1166 0.9221
vn 0.4023 -0.1204 0.9075
vn -0.4624 -0.0592 -0.8847
vn -0.4945 -0.0442 -0.8680
vn -0.4509 -0.0645 -0.8902
vn 0.3483 -0.0611 0.9354
vn 0.3399 -0.0639 0.9383
vn -0.7392 0.0091 0.6734
vn -0.7434 0.0109 0.6688
vn -0.7442 0.0113 0.6678
vn 0.5264 -0.0193 -0.8500
vn 0.6434 -0.0427 -0.7644
vn 0.4715 -0.0107 -0.8818
vn 0.5438 -0.1639 -0.8230
vn 0.5609 -0.1657 -0.8111
vn 0.5617 -0.1640 -0.8109
vn 0.5355 -0.0808 -0.8407
vn 0.5501 -0.0826 -0.8310
vn 0.5502 -0.0817 -0.8310
vn 0.5366 -0.0452 -0.8426
vn 0.5384 -0.0452 -0.8415
vn 0.5384 -0.0449 -0.8415
vn -0.9083 0.0050 -0.4183
vn 0.8162 -0.1761 0.5503
vn 0.6544 -0.1857 0.7330
vn -0.9781 0.0938 -0.1857
vn -0.9795 0.0971 -0.1765
vn -0.9814 0.0443 -0.1869
vn -0.9801 0.0419 -0.1938
vn -0.9817 0.0449 -0.1851
vn -0.9797 -0.0221 -0.1994
vn -0.9813 -0.0197 -0.1917
vn -0.9789 -0.0317 -0.2017
vn -0.9774 -0.0337 -0.2086
vn -0.9792 -0.0314 -0.2004
vn 0.5366 -0.0449 -0.8427
vn 0.5385 -0.0447 -0.8415
vn 0.5359 -0.0801 -0.8405
vn 0.5452 -0.1623 -0.8224
vn 0.5211 -0.2849 -0.8046
vn 0.5472 -0.2707 -0.7920
vn 0.3501 -0.0668 0.9343
vn 0.3420 -0.0694 0.9371
vn 0.3525 -0.0660 0.9335
vn 0.3644 -0.1056 0.9252
vn 0.3695 -0.1038 0.9234
vn 0.3695 -0.1160 0.9219
vn 0.4029 -0.1192 0.9074
vn 0.3530 -0.0996 0.9303
vn -0.9842 -0.0038 0.1770
vn -0.7708 -0.0099 0.6370
vn 0.1559 -0.0816 0.9844
vn 0.3530 -0.1013 0.9301
vn 0.4030 -0.1135 0.9082
vn 0.1944 -0.0850 0.9772
vn -0.0786 -0.0521 -0.9955
vn -0.4196 -0.0708 -0.9049
vn -0.1286 -0.0185 -0.9915
vn 0.8805 -0.2254 -0.4171
vn 0.7746 -0.1186 -0.6212
vn 0.8621 -0.1127 -0.4941
vn 0.9295 -0.2170 -0.2983
vn 0.9010 -0.1880 -0.3909
vn 0.7079 -0.2925 -0.6429
vn 0.7109 -0.1744 -0.6813
vn 0.8801 -0.1864 -0.4366
vn -0.2108 -0.0831 -0.9740
vn -0.5026 -0.0049 -0.8645
vn -0.4167 -0.0536 -0.9074
vn -0.0796 -0.1021 -0.9916
vn 0.1275 -0.0541 0.9904
vn 0.3727 -0.0957 0.9230
vn 0.3397 -0.0702 0.9379
vn 0.1508 -0.0534 0.9871
vn -0.9825 0.1060 0.1529
vn -0.8049 0.0823 0.5876
vn -0.7918 0.0350 0.6098
vn -0.9855 0.0559 0.1602
vn 0.9700 -0.1655 -0.1782
vn -0.2173 0.0186 -0.9759
vn -0.5025 -0.0109 -0.8645
vn 0.1945 -0.0808 0.9776
vn -0.9999 0.0138 -0.0063
vn -0.3601 -0.0075 0.9329
vn -0.0467 -0.0606 0.9971
vn 0.0815 -0.0100 -0.9966
vn -0.4877 0.0465 0.8718
vn -0.1973 -0.0089 0.9803
vn -0.1787 -0.0311 0.9834
vn -0.4864 0.0178 0.8736
vn 0.5050 -0.3226 -0.8005
vn 0.3037 -0.1944 -0.9327
vn 0.3280 -0.1279 -0.9360
vn 0.5434 -0.1728 -0.8215
vn 0.5359 -0.0846 -0.8400
vn 0.2799 -0.0701 -0.9575
vn 0.1920 -0.0378 -0.9807
vn 0.5366 -0.0453 -0.8426
vn -0.4643 -0.0133 0.8856
vn -0.1454 -0.0601 0.9875
vn -0.1003 -0.0674 0.9927
vn -0.4179 -0.0199 0.9083
vn 0.9791 -0.1947 0.0579
vn -0.8118 0.0599 -0.5808
vn -0.9797 0.0429 -0.1958
vn -0.7762 -0.0001 -0.6305
vn 0.5703 0.0050 0.8214
vn 0.8977 0.0706 0.4350
vn 0.8725 -0.1160 0.4747
vn 0.4573 -0.0707 0.8865
vn 0.5049 -0.1341 0.8527
vn 0.9031 -0.2349 0.3595
vn 0.9761 -0.2160 0.0240
vn 0.6939 -0.1599 0.7021
vn -0.7809 -0.0482 -0.6228
vn -0.9816 -0.0193 -0.1901
vn -0.7894 -0.0489 -0.6119
vn -0.9771 -0.0341 -0.2100
vn -0.9798 0.0413 -0.1957
vn -0.9801 0.0960 -0.1737
vn 0.8960 -0.2112 -0.3906
vn 0.9304 -0.2028 -0.3054
vn 0.8811 -0.2092 -0.4241
vn -0.7480 -0.0179 0.6634
vn -0.9814 -0.0170 0.1910
vn -0.5063 -0.0387 -0.8615
vn 0.3373 -0.0648 0.9392
vn -0.7383 0.0087 0.6744
vn 0.7317 -0.1997 0.6518
vn -0.9799 0.0981 -0.1739
vn 0.5074 -0.2921 -0.8107
vn 0.3724 -0.1028 0.9224
usemtl LegRU
s 1
f 2/1/1 4/2/2 1/3/3
f 1/3/4 6/4/5 2/1/6
f 7/5/7 9/6/8 10/7/9
f 11/8/10 8/9/11 7/5/12
f 7/5/13 14/10/14 11/8/15
f 10/7/16 13/11/17 7/5/18
f 17/12/19 19/13/20 16/14/21
f 20/15/22 17/12/23 16/14/24
f 16/14/25 22/16/26 23/17/27
f 25/18/28 27/19/29 24/20/30
f 28/21/31 30/22/32 31/23/33
f 32/24/34 29/25/35 28/21/36
f 24/20/37 34/26/38 35/27/39
f 36/28/40 38/29/41 39/30/42
f 40/31/43 42/32/44 43/33/45
f 31/23/46 41/34/47 40/31/48
f 36/28/49 26/35/50 25/18/51
f 44/36/52 46/37/53 47/38/54
f 48/39/55 45/40/56 44/36/57
f 44/36/58 21/41/59 48/39/60
f 47/38/61 17/12/62 44/36/63
f 51/42/64 53/43/65 50/44/66
f 54/45/67 51/42/67 50/44/68
f 50/44/69 12/46/70 54/45/71
f 53/43/72 8/9/73 50/44/74
f 57/47/75 59/48/76 56/49/77
f 56/49/78 61/50/79 57/47/80
f 2/1/81 60/51/82 56/49/83
f 56/49/84 3/52/85 2/1/86
f 35/27/87 63/53/88 62/54/89
f 64/55/90 33/56/91 32/24/92
f 23/17/93 67/57/94 66/58/95
f 68/59/96 23/17/97 66/58/98
f 13/11/99 71/60/100 70/61/101
f 72/62/102 13/11/99 70/61/101
f 74/63/103 76/64/104 73/65/105
f 78/66/106 80/67/107 77/68/108
f 77/68/109 15/69/110 78/66/111
f 81/70/112 22/16/113 82/71/114
f 84/72/115 60/73/116 83/74/117
f 83/74/118 52/75/119 84/72/120
f 85/76/121 53/43/122 83/74/123
f 83/74/124 6/77/125 85/76/126
f 87/78/127 41/34/128 86/79/129
f 86/80/130 46/37/131 87/81/132
f 88/82/133 47/38/134 86/80/135
f 86/79/136 30/22/137 88/83/138
f 88/83/139 29/25/140 89/84/141
f 89/85/142 18/86/143 88/82/144
f 82/71/145 19/13/146 89/85/147
f 89/84/148 33/56/149 82/87/150
f 85/76/151 5/88/152 90/89/153
f 90/89/154 9/6/155 85/76/156
f 78/66/157 10/7/158 90/89/159
f 90/89/160 79/90/161 78/66/162
f 91/91/163 69/92/164 68/93/165
f 63/53/166 94/94/167 93/95/168
f 95/96/169 49/97/170 48/98/171
f 97/99/172 3/52/173 59/48/174
f 48/39/175 99/100/176 95/101/177
f 100/102/178 55/103/179 54/45/180
f 39/30/181 101/104/182 100/105/183
f 100/105/184 26/35/185 39/30/186
f 54/45/187 102/106/188 100/102/189
f 103/107/190 12/46/191 11/8/192
f 27/19/193 102/108/194 103/109/195
f 103/109/196 34/26/197 27/19/198
f 11/8/199 94/110/200 103/107/201
f 104/111/202 21/41/203 20/15/204
f 4/2/205 98/112/206 105/113/207
f 105/113/208 75/114/209 4/2/210
f 20/15/204 92/115/211 104/111/202
f 104/116/212 106/117/213 105/113/208
f 105/113/207 99/118/214 104/116/215
f 95/96/216 98/112/217 97/99/218
f 97/99/219 96/119/220 95/96/221
f 32/24/222 62/54/89 64/55/223
f 40/31/224 25/18/51 31/23/225
f 40/31/226 37/120/227 36/28/228
f 28/21/229 35/27/230 32/24/231
f 31/23/232 24/20/233 28/21/234
f 74/63/235 5/121/236 1/3/237
f 1/3/238 75/114/239 74/63/240
f 11/8/241 109/122/242 108/123/243
f 108/123/244 14/10/245 11/8/15
f 16/14/246 69/124/247 20/15/248
f 111/125/249 12/46/250 54/45/71
f 73/65/251 79/126/252 74/63/253
f 113/127/254 65/128/255 112/129/256
f 114/130/257 30/22/258 115/131/259
f 115/131/260 29/25/261 116/132/262
f 116/132/263 33/56/264 113/133/265
f 76/64/104 92/134/266 91/91/163
f 93/135/267 14/10/268 72/62/102
f 59/48/269 96/119/270 95/96/221
f 95/96/271 3/52/272 59/48/273
f 4/2/274 99/118/275 104/116/215
f 104/116/276 75/114/277 4/2/278
f 89/84/279 113/133/265 82/87/280
f 88/83/281 116/132/262 89/84/141
f 86/79/282 115/131/259 88/83/138
f 87/78/283 114/130/284 86/79/129
f 82/71/114 112/129/256 81/70/112
f 50/44/285 109/122/286 111/125/287
f 111/125/288 51/42/289 50/44/68
f 7/5/290 110/136/291 108/123/244
f 108/123/243 8/9/292 7/5/12
f 2/1/1 3/52/293 4/2/2
f 1/3/4 5/121/294 6/4/5
f 7/5/7 8/9/295 9/6/8
f 11/8/10 12/46/296 8/9/11
f 7/5/13 13/11/297 14/10/14
f 10/7/16 15/69/298 13/11/17
f 17/12/19 18/86/299 19/13/20
f 20/15/22 21/41/300 17/12/23
f 16/14/25 19/13/301 22/16/26
f 25/18/28 26/35/302 27/19/29
f 28/21/31 29/25/303 30/22/32
f 32/24/34 33/56/304 29/25/35
f 24/20/37 27/19/305 34/26/38
f 36/28/40 37/120/306 38/29/41
f 40/31/43 41/34/307 42/32/44
f 31/23/46 30/22/308 41/34/47
f 36/28/49 39/30/309 26/35/50
f 44/36/52 45/40/310 46/37/53
f 48/39/55 49/137/311 45/40/56
f 44/36/58 17/12/312 21/41/59
f 47/38/61 18/86/313 17/12/62
f 51/42/64 52/75/314 53/43/65
f 54/45/67 55/103/315 51/42/67
f 50/44/69 8/9/316 12/46/70
f 53/43/72 9/6/317 8/9/73
f 57/47/75 58/138/318 59/48/76
f 56/49/78 60/51/319 61/50/79
f 2/1/81 6/4/320 60/51/82
f 56/49/84 59/48/321 3/52/85
f 35/27/87 34/26/322 63/53/88
f 64/55/90 65/139/255 33/56/91
f 23/17/93 22/16/323 67/57/94
f 68/59/96 69/124/324 23/17/97
f 13/11/99 15/69/325 71/60/100
f 72/62/102 14/10/268 13/11/99
f 74/63/103 75/114/326 76/64/104
f 78/66/106 79/90/327 80/67/107
f 77/68/109 71/60/328 15/69/110
f 81/70/112 67/57/329 22/16/113
f 84/72/115 61/140/330 60/73/116
f 83/74/118 53/43/331 52/75/119
f 85/76/121 9/6/332 53/43/122
f 83/74/124 60/73/333 6/77/125
f 87/78/127 42/32/334 41/34/128
f 86/80/130 47/38/335 46/37/131
f 88/82/133 18/86/336 47/38/134
f 86/79/136 41/34/337 30/22/137
f 88/83/139 30/22/338 29/25/140
f 89/85/142 19/13/339 18/86/143
f 82/71/145 22/16/340 19/13/146
f 89/84/148 29/25/341 33/56/149
f 85/76/151 6/77/342 5/88/152
f 90/89/154 10/7/343 9/6/155
f 78/66/157 15/69/344 10/7/158
f 90/89/160 5/88/345 79/90/161
f 91/91/163 92/134/266 69/92/164
f 63/53/166 34/26/346 94/94/167
f 95/96/169 96/119/347 49/97/170
f 97/99/172 98/112/348 3/52/173
f 48/39/175 21/41/349 99/100/176
f 100/102/178 101/141/350 55/103/179
f 39/30/181 38/29/351 101/104/182
f 100/105/184 102/108/352 26/35/185
f 54/45/187 12/46/353 102/106/188
f 103/107/190 102/106/354 12/46/191
f 27/19/193 26/35/355 102/108/194
f 103/109/196 94/94/356 34/26/197
f 11/8/199 14/10/357 94/110/200
f 104/111/202 99/100/358 21/41/203
f 4/2/205 3/52/359 98/112/206
f 105/113/208 106/117/213 75/114/209
f 20/15/204 69/124/360 92/115/211
f 104/116/212 92/134/361 106/117/213
f 105/113/207 98/112/206 99/118/214
f 95/96/216 99/118/362 98/112/217
f 97/99/219 107/142/363 96/119/220
f 32/24/222 35/27/87 62/54/89
f 40/31/224 36/28/49 25/18/51
f 40/31/226 43/33/364 37/120/227
f 28/21/229 24/20/365 35/27/230
f 31/23/232 25/18/366 24/20/233
f 74/63/235 79/126/367 5/121/236
f 1/3/238 4/2/368 75/114/239
f 11/8/241 12/46/296 109/122/242
f 108/123/244 110/136/291 14/10/245
f 16/14/246 23/17/369 69/124/247
f 111/125/249 109/122/370 12/46/250
f 73/65/251 80/143/371 79/126/252
f 113/127/254 33/144/91 65/128/255
f 114/130/257 41/34/337 30/22/258
f 115/131/260 30/22/338 29/25/261
f 116/132/263 29/25/341 33/56/264
f 76/64/104 75/114/326 92/134/266
f 93/135/267 94/110/372 14/10/268
f 59/48/269 58/138/373 96/119/270
f 95/96/271 99/118/362 3/52/272
f 4/2/274 3/52/359 99/118/275
f 104/116/276 92/134/361 75/114/277
f 89/84/279 116/132/263 113/133/265
f 88/83/281 115/131/260 116/132/262
f 86/79/282 114/130/257 115/131/259
f 87/78/283 117/145/374 114/130/284
f 82/71/114 113/127/254 112/129/256
f 50/44/285 8/9/316 109/122/286
f 111/125/288 118/146/375 51/42/289
f 7/5/290 13/11/297 110/136/291
f 108/123/243 109/122/242 8/9/292
l 110 120
l 119 106
