# Blender v2.79 (sub 0) OBJ File: 'characterModel + riggedModel.blend'
# www.blender.org
mtllib lewis_upper_la.mtl
v 2.354129 3.050005 -0.470428
v 2.260124 2.871158 -0.479733
v 2.105925 3.244632 -0.495252
v 2.211585 3.431432 -0.486338
v 2.301848 3.592122 -0.417132
v 2.428084 3.213361 -0.404817
v 2.506508 3.174742 0.017119
v 2.510771 3.266907 -0.148271
v 2.398586 3.640795 -0.149644
v 2.393503 3.544043 0.018795
v 2.347731 3.418659 0.164090
v 2.467810 3.051604 0.159153
v 2.482464 3.282721 -0.293174
v 2.366108 3.659365 -0.299927
v 2.180758 2.774382 0.284478
v 2.293224 2.849986 0.267240
v 2.143678 3.221384 0.278544
v 2.023268 3.131011 0.282082
v 1.335340 4.084255 -0.426492
v 1.477906 3.880932 -0.439905
v 1.404325 3.768821 -0.304654
v 1.279919 3.955098 -0.297566
v 1.266714 3.916517 -0.140273
v 1.339426 3.752088 0.032717
v 1.312532 3.970501 0.045782
v 1.384963 3.708051 -0.130204
v 1.414886 3.621155 -0.019235
v 1.854633 4.790066 -0.403506
v 1.882880 4.802963 -0.229337
v 2.082181 4.479843 -0.168777
v 2.048869 4.482901 -0.333582
v 1.975654 4.404445 -0.459876
v 1.789186 4.696132 -0.523913
v 1.867563 4.757887 -0.039455
v 1.822171 4.640238 0.131537
v 2.010469 4.285238 0.170161
v 2.068921 4.404469 0.010958
v 1.692903 4.498096 -0.552512
v 1.869204 4.235281 -0.524077
v 1.751732 4.039946 -0.520029
v 1.422007 4.268057 -0.511098
v 2.145595 2.755319 -0.422453
v 2.053138 2.688162 -0.311938
v 1.911934 3.000333 -0.312218
v 1.995474 3.099058 -0.431580
v 2.025357 2.655367 -0.161536
v 1.886997 2.954077 -0.154055
v 2.045882 2.673585 0.151262
v 2.087585 2.715701 0.255792
v 1.929666 3.050666 0.242576
v 1.895625 2.987954 0.147047
v 1.891337 2.952540 0.010001
v 2.032765 2.652114 0.001836
v 2.392812 2.942874 0.233996
v 2.258144 3.314187 0.244943
v 2.092063 3.742478 0.263168
v 1.571786 4.299964 0.327229
v 1.421030 4.118931 0.349613
v 1.960381 3.644695 0.290068
v 2.192136 3.852871 0.173919
v 1.520234 3.398235 0.116282
v 1.534664 3.476684 0.186125
v 1.543803 3.347111 0.016829
v 1.548259 3.349329 -0.140934
v 1.739099 3.406582 -0.310501
v 1.819202 3.514421 -0.440337
v 1.930158 3.666176 -0.511437
v 1.811751 3.558490 0.253383
v 1.335958 4.032158 0.266007
v 2.220469 4.082713 -0.306226
v 2.148789 4.012797 -0.429884
v 2.254903 4.068779 -0.149345
v 2.245937 3.976902 0.023559
v 2.046021 3.853126 -0.503120
v 1.252818 3.913772 -0.064368
v 1.400826 3.661985 -0.071375
v 1.699352 4.428154 0.281526
v 1.822906 4.632148 0.137102
v 2.029284 2.653643 -0.074926
v 1.889298 2.953263 -0.067083
v 1.545897 3.348153 -0.057298
vt 0.552236 0.452768
vt 0.549725 0.443371
vt 0.591923 0.453796
vt 0.587641 0.473822
vt 0.572693 0.491540
vt 0.548179 0.462337
vt 0.506969 0.461642
vt 0.521519 0.467260
vt 0.521998 0.498133
vt 0.494354 0.488193
vt 0.474468 0.475068
vt 0.497868 0.454524
vt 0.536716 0.467496
vt 0.549478 0.499535
vt 0.492167 0.436169
vt 0.493028 0.441668
vt 0.451733 0.451787
vt 0.446020 0.438055
vt 0.884733 0.542156
vt 0.813983 0.507408
vt 0.839182 0.472275
vt 0.907899 0.500935
vt 0.937844 0.469250
vt 0.864903 0.435880
vt 0.076276 0.294065
vt 0.086377 0.257942
vt 0.119241 0.246209
vt 0.128425 0.270012
vt 0.634571 0.706359
vt 0.563090 0.710820
vt 0.529084 0.631434
vt 0.587847 0.632009
vt 0.641252 0.618922
vt 0.694116 0.688615
vt 0.483514 0.706554
vt 0.403559 0.688752
vt 0.393988 0.598396
vt 0.462844 0.619416
vt 0.749045 0.646926
vt 0.690100 0.588069
vt 0.728378 0.549314
vt 0.859255 0.590872
vt 0.545874 0.436232
vt 0.538694 0.430602
vt 0.579537 0.415680
vt 0.589821 0.435161
vt 0.527680 0.428079
vt 0.549689 0.383373
vt 0.501756 0.429500
vt 0.494091 0.431956
vt 0.445439 0.423407
vt 0.457421 0.407876
vt 0.489895 0.382955
vt 0.512989 0.428359
vt 0.494174 0.447877
vt 0.461663 0.463684
vt 0.409333 0.504941
vt 0.220262 0.579160
vt 0.185805 0.536393
vt 0.383021 0.486641
vt 0.439652 0.521630
vt 0.304868 0.414509
vt 0.299294 0.430823
vt 0.133571 0.467713
vt 0.186899 0.437182
vt 0.221048 0.414805
vt 0.310635 0.395776
vt 0.096711 0.198115
vt 0.138975 0.201067
vt 0.738622 0.390258
vt 0.688893 0.432478
vt 0.109313 0.119049
vt 0.153411 0.121315
vt 0.677836 0.462583
vt 0.661685 0.491942
vt 0.356331 0.465828
vt 0.166935 0.510512
vt 0.564810 0.556634
vt 0.604125 0.546367
vt 0.521611 0.554406
vt 0.476467 0.540544
vt 0.638050 0.521872
vt 0.101221 0.433560
vt 0.100454 0.448579
vt 0.557758 0.143010
vt 0.529411 0.202465
vt 0.509589 0.211015
vt 0.492004 0.179274
vt 0.259556 0.612463
vt 0.304520 0.666628
vt 0.520355 0.427965
vt 0.517484 0.382038
vt 0.519683 0.274249
vt 0.492414 0.273719
vt 0.550469 0.274860
vt 0.551778 0.192823
vn 0.0969 -0.0033 -0.9953
vn 0.0871 -0.0042 -0.9962
vn 0.0948 -0.0035 -0.9955
vn 0.4620 0.1308 -0.8772
vn 0.9401 0.2848 0.1875
vn 0.8408 0.2619 0.4737
vn 0.7952 0.2413 -0.5563
vn 0.9446 0.2859 -0.1612
vn 0.0751 0.0195 0.9970
vn -0.6292 -0.3959 -0.6689
vn -0.8275 -0.5104 -0.2341
vn -0.8689 -0.4820 -0.1126
vn 0.8514 0.4966 -0.1690
vn 0.7158 0.3157 -0.6229
vn 0.7023 0.4551 0.5474
vn 0.8192 0.5235 0.2340
vn 0.3279 0.0573 -0.9430
vn -0.0344 -0.0751 -0.9966
vn -0.6434 -0.2959 -0.7061
vn -0.3119 -0.1645 -0.9358
vn -0.9029 -0.4157 -0.1095
vn -0.9018 -0.4147 -0.1215
vn -0.8808 -0.4001 -0.2530
vn -0.7924 -0.3629 0.4902
vn -0.8944 -0.4252 0.1388
vn -0.9006 -0.4258 0.0867
vn -0.9012 -0.4258 0.0807
vn 0.5500 0.1722 0.8172
vn 0.5488 0.1725 0.8180
vn 0.5414 0.1744 0.8225
vn 0.2456 0.0650 0.9672
vn 0.1438 0.0292 0.9892
vn 0.2025 0.0489 0.9781
vn 0.5403 0.1747 0.8231
vn -0.7656 -0.2027 0.6105
vn -0.8761 -0.2755 0.3957
vn -0.8079 -0.2284 0.5433
vn -0.8926 -0.4487 -0.0442
vn -0.7345 -0.6544 0.1796
vn -0.6141 -0.5023 0.6087
vn -0.9057 -0.4204 -0.0536
vn -0.6806 -0.4570 -0.5726
vn -0.6871 -0.4277 -0.5874
vn -0.7549 -0.6558 -0.0079
vn -0.5245 -0.4805 -0.7028
vn -0.2344 -0.1751 -0.9562
vn -0.3366 -0.1692 -0.9263
vn -0.6711 -0.2910 -0.6819
vn -0.2346 -0.3211 0.9175
vn -0.5737 -0.3140 0.7564
vn -0.1040 -0.0282 0.9942
vn 0.7479 0.2821 -0.6010
vn 0.9104 0.3765 -0.1718
vn 0.9334 0.3160 -0.1699
vn 0.7703 0.2595 -0.5825
vn 0.8933 0.3816 0.2373
vn 0.7723 0.3324 0.5413
vn 0.8157 0.2766 0.5081
vn 0.9264 0.3122 0.2106
vn 0.0465 -0.0172 -0.9988
vn 0.4031 0.1226 -0.9069
vn 0.4354 0.1335 -0.8903
vn 0.0851 -0.0045 -0.9964
vn -0.2727 -0.1028 0.9566
vn -0.2354 -0.2086 -0.9492
vn -0.9031 -0.2983 0.3089
vn -0.8723 -0.4786 -0.1002
vn 0.4101 0.1993 0.8900
vn -0.9055 -0.4236 0.0263
vn 0.3752 0.2111 0.9026
vn -0.9077 -0.4163 -0.0532
vn -0.9032 -0.4257 -0.0556
vn -0.9040 -0.4240 -0.0550
vn -0.7548 -0.6559 -0.0079
vn -0.7526 -0.6585 -0.0080
vn -0.2445 -0.0773 0.9665
vn -0.7570 -0.6533 -0.0079
vn -0.9077 -0.4164 -0.0521
vn -0.8560 -0.4931 -0.1553
usemtl Material.035
s 1
f 1/1/1 2/2/1 3/3/2 4/4/3
f 1/1/4 4/4/4 5/5/4 6/6/4
f 7/7/5 8/8/5 9/9/5 10/10/5
f 7/7/6 10/10/6 11/11/6 12/12/6
f 13/13/7 6/6/7 5/5/7 14/14/7
f 13/13/8 14/14/8 9/9/8 8/8/8
f 15/15/9 16/16/9 17/17/9 18/18/9
f 19/19/10 20/20/10 21/21/10 22/22/10
f 23/23/11 22/22/11 21/21/11 26/24/11
f 23/25/12 26/26/12 27/27/12 24/28/12
f 28/29/13 29/30/13 30/31/13 31/32/13
f 28/29/14 31/32/14 32/33/14 33/34/14
f 34/35/15 35/36/15 36/37/15 37/38/15
f 34/35/16 37/38/16 30/31/16 29/30/16
f 38/39/17 33/34/17 32/33/17 39/40/17
f 38/39/18 39/40/18 40/41/18 41/42/18
f 42/43/19 43/44/19 44/45/19 45/46/19
f 42/43/20 45/46/20 3/3/20 2/2/20
f 46/47/21 47/48/22 44/45/23 43/44/23
f 48/49/24 49/50/24 50/51/24 51/52/24
f 48/49/25 51/52/25 52/53/26 53/54/27
f 54/55/28 12/12/28 11/11/29 55/56/30
f 54/55/31 55/56/31 17/17/31 16/16/31
f 56/57/32 57/58/32 58/59/32 59/60/32
f 56/57/33 59/60/33 17/17/33 55/56/33
f 56/57/34 55/56/30 11/11/29 60/61/34
f 61/62/35 62/63/35 25/64/36 24/65/37
f 61/62/38 24/65/38 27/66/38 63/67/38
f 61/62/39 63/67/39 52/53/39 51/52/39
f 61/62/40 51/52/40 50/51/40 62/63/40
f 64/68/41 63/69/41 27/27/41 26/26/41
f 64/70/42 26/24/42 21/21/42 65/71/42
f 64/70/43 65/71/43 44/45/43 47/48/43
f 64/68/44 47/72/44 52/73/44 63/69/44
f 66/74/45 65/71/45 21/21/45 20/20/45
f 66/74/46 20/20/46 40/41/46 67/75/46
f 66/74/47 67/75/47 3/3/47 45/46/47
f 66/74/48 45/46/48 44/45/48 65/71/48
f 68/76/49 59/60/49 58/59/49 69/77/49
f 68/76/50 69/77/50 25/64/50 62/63/50
f 68/76/51 18/18/51 17/17/51 59/60/51
f 70/78/52 71/79/52 32/33/52 31/32/52
f 70/78/53 31/32/53 30/31/53 72/80/53
f 70/78/54 72/80/54 9/9/54 14/14/54
f 70/78/55 14/14/55 5/5/55 71/79/55
f 73/81/56 72/80/56 30/31/56 37/38/56
f 73/81/57 37/38/57 36/37/57 60/61/57
f 73/81/58 60/61/58 11/11/58 10/10/58
f 73/81/59 10/10/59 9/9/59 72/80/59
f 74/82/60 67/75/60 40/41/60 39/40/60
f 74/82/61 39/40/61 32/33/61 71/79/61
f 74/82/62 71/79/62 5/5/62 4/4/62
f 74/82/63 4/4/3 3/3/2 67/75/63
f 15/15/64 18/18/64 50/51/64 49/50/64
f 19/19/65 41/42/65 40/41/65 20/20/65
f 23/83/66 24/65/37 25/64/36 75/84/66
f 23/85/67 76/86/67 27/87/67 24/88/67
f 77/89/68 57/58/68 36/37/68 78/90/68
f 79/91/69 53/54/27 52/53/26 80/92/69
f 56/57/70 60/61/70 36/37/70 57/58/70
f 81/93/71 63/94/72 27/87/72 76/86/73
f 81/93/74 80/92/74 52/53/75 63/94/75
f 68/76/76 62/63/76 50/51/76 18/18/76
f 64/95/77 47/48/77 80/92/74 81/93/74
f 64/95/78 81/93/71 76/86/73 26/96/78
f 46/47/21 79/91/69 80/92/69 47/48/22
f 23/85/79 26/96/79 76/86/79
