# Blender v2.79 (sub 0) OBJ File: 'characterModel + riggedModel.blend'
# www.blender.org
mtllib lewis_upper_rl.mtl
v -1.353803 -1.265714 0.136828
v -1.359761 -0.670313 0.127660
v -1.386731 -0.667669 -0.022277
v -1.379914 -1.263439 0.002896
v -1.257012 -1.290869 0.253549
v -1.257445 -0.699711 0.262211
v -0.599423 -1.343184 0.331472
v -0.538578 -0.750933 0.370943
v -0.807804 -0.803872 0.409198
v -0.840709 -1.384805 0.368976
v -0.388253 -1.228307 0.261931
v -0.293613 -0.626173 0.291570
v -0.672559 -1.995543 0.282415
v -0.501632 -1.924008 0.215512
v -0.879220 -1.991634 0.323866
v -1.069497 -1.335858 -0.343382
v -1.056599 -0.759237 -0.386366
v -0.808135 -0.765734 -0.405636
v -0.840437 -1.340679 -0.372992
v -1.253810 -1.297927 -0.252767
v -1.253896 -0.712916 -0.298498
v -0.875098 -1.910253 -0.357846
v -1.080345 -1.895845 -0.311874
v -0.224101 -0.952410 0.042587
v -0.083166 -0.361570 0.043923
v -0.043613 -0.333473 0.112241
v -0.195306 -0.921008 0.109463
v -0.256591 -0.987842 -0.032868
v -0.403188 -1.138168 -0.186956
v -0.314227 -0.537964 -0.190652
v -0.127795 -0.393273 -0.033159
v -0.405576 -1.671031 -0.069569
v -0.505429 -1.787970 -0.217119
v -0.371753 -1.625063 0.071858
v -0.387645 -1.646662 0.005406
v -0.029759 -0.027516 0.009560
v -0.017215 0.155897 -0.049744
v 0.019726 0.149193 0.038631
v 0.010163 -0.016182 0.085193
v -0.074803 -0.040305 -0.075775
v -0.265935 -0.133758 -0.243720
v -0.236288 0.134243 -0.333023
v -0.058897 0.163461 -0.149456
v -1.023017 -0.232684 -0.432897
v -0.973134 0.235373 -0.483639
v -0.724396 0.126344 -0.528171
v -0.769783 -0.275528 -0.459194
v -1.223770 -0.160836 -0.335684
v -1.170735 0.357759 -0.369443
v -0.505195 -0.352715 0.388654
v -0.455173 -0.048178 0.404130
v -0.723249 0.042479 0.443589
v -0.777220 -0.348500 0.429160
v -0.255305 -0.277923 0.299584
v -0.214866 -0.051786 0.306710
v -1.332021 -0.113045 0.120933
v -1.275947 0.425359 0.116751
v -1.301451 0.432801 -0.052299
v -1.357882 -0.108583 -0.039755
v -1.230342 -0.156192 0.266250
v -1.175039 0.360998 0.269579
v -0.508882 -2.290953 -0.067765
v -0.499788 -2.291919 -0.005579
v -0.519142 -2.289863 -0.137928
v -0.593560 -2.340979 -0.265631
v -1.107779 -2.372496 -0.299774
v -0.920519 -2.384348 -0.356780
v -1.262520 -2.353561 -0.200188
v -1.248388 -1.862571 -0.214620
v -0.742821 -2.574090 0.235946
v -0.926624 -2.524694 0.289238
v -0.596158 -2.552965 0.157160
v -1.349939 -2.346319 0.142454
v -1.341435 -1.843100 0.143429
v -1.365802 -1.839984 0.024184
v -1.372771 -2.341394 0.030008
v -1.113905 -2.446841 0.285204
v -1.085492 -1.934354 0.306915
v -1.252515 -1.869558 0.242967
v -1.267426 -2.375671 0.233167
v -0.738235 -2.373159 -0.341991
v -0.672696 -1.871001 -0.319736
v -1.032172 -0.258835 0.378675
v -0.977006 0.206122 0.388632
v -1.060441 -0.765514 0.364505
v -0.507508 -0.227359 -0.383831
v -0.468451 0.107252 -0.468614
v -0.550845 -0.677046 -0.327605
v -0.608069 -1.265279 -0.310590
v -1.072942 -1.348966 0.336967
v -1.347240 -2.343501 -0.087233
v -1.339165 -1.845211 -0.098884
v -0.520303 -2.419265 0.084718
v -0.402566 -1.754952 0.156105
v -1.328595 -0.121991 -0.198299
v -1.273278 0.416919 -0.220014
v -1.344120 -0.114883 -0.114249
v -1.373086 -0.674464 -0.092030
v -1.357692 -0.682132 -0.170732
v -0.066762 -0.130566 0.204371
v -0.044415 0.045724 0.187781
v -0.113754 -0.449063 0.212910
v -0.246370 -1.044374 0.197829
v -1.351931 -1.273982 -0.132155
v -1.366765 -1.268392 -0.060560
v -1.353287 -1.842441 -0.033641
v -1.288213 0.425337 -0.131102
v -0.493837 -1.285745 0.296701
v -0.416096 -0.688553 0.331257
v -0.587095 -1.959775 0.248963
v -0.380249 -0.315319 0.344119
v -0.665896 -2.357069 -0.303811
v -0.589064 -1.829485 -0.268427
v -0.386722 -0.180557 -0.313775
v -0.432537 -0.607507 -0.259129
v -0.505630 -1.201725 -0.248773
v -0.352369 0.120748 -0.400819
v -0.335020 -0.049982 0.355420
v -1.360777 -2.342384 -0.025080
v -0.669488 -2.563525 0.196553
vt 0.628150 0.282708
vt 0.747076 0.294320
vt 0.742726 0.312076
vt 0.623555 0.297927
vt 0.628074 0.265423
vt 0.746520 0.274179
vt 0.622762 0.184820
vt 0.755464 0.183135
vt 0.738241 0.215921
vt 0.615677 0.214635
vt 0.416764 0.141299
vt 0.369151 0.141066
vt 0.299286 0.086485
vt 0.357502 0.084847
vt 0.480725 0.203546
vt 0.440423 0.202621
vt 0.505667 0.224125
vt 0.385353 0.335387
vt 0.320855 0.399738
vt 0.270431 0.383624
vt 0.341026 0.320351
vt 0.423964 0.350518
vt 0.361165 0.417601
vt 0.407754 0.269658
vt 0.435777 0.282561
vt 0.286143 0.136694
vt 0.203026 0.085413
vt 0.209580 0.076590
vt 0.291420 0.128259
vt 0.280271 0.146226
vt 0.276857 0.175346
vt 0.188410 0.127876
vt 0.195715 0.095454
vt 0.369600 0.204476
vt 0.367976 0.230478
vt 0.381490 0.189810
vt 0.375667 0.196632
vt 0.151277 0.058746
vt 0.116302 0.047148
vt 0.131717 0.039630
vt 0.162016 0.050620
vt 0.139272 0.067986
vt 0.121079 0.098364
vt 0.069492 0.081209
vt 0.099092 0.055635
vt 0.256571 0.459276
vt 0.195585 0.511554
vt 0.153847 0.483886
vt 0.207879 0.438891
vt 0.296426 0.480517
vt 0.231846 0.539001
vt 0.843855 0.185769
vt 0.911920 0.185449
vt 0.922794 0.220545
vt 0.836532 0.219509
vt 0.312500 0.043036
vt 0.254037 0.051335
vt 0.221159 0.030460
vt 0.269317 0.012784
vt 0.863463 0.303717
vt 0.979339 0.310964
vt 0.976400 0.331855
vt 0.859894 0.323289
vt 0.860320 0.281763
vt 0.972000 0.287448
vt 0.440537 0.238093
vt 0.443424 0.236306
vt 0.437658 0.240129
vt 0.437449 0.244830
vt 0.454777 0.257156
vt 0.446008 0.254351
vt 0.463940 0.258665
vt 0.469295 0.290054
vt 0.464800 0.240443
vt 0.471651 0.242406
vt 0.458389 0.239131
vt 0.480845 0.253814
vt 0.525325 0.269100
vt 0.516516 0.279887
vt 0.477250 0.256617
vt 0.477617 0.245799
vt 0.521219 0.240892
vt 0.527890 0.256937
vt 0.481249 0.250055
vt 0.439823 0.250347
vt 0.378473 0.251029
vt 0.846854 0.252537
vt 0.948100 0.255866
vt 0.739708 0.247101
vt 0.103224 0.131955
vt 0.041905 0.109358
vt 0.147007 0.425982
vt 0.102740 0.464457
vt 0.205697 0.375803
vt 0.190102 0.127837
vt 0.180647 0.163971
vt 0.277104 0.208541
vt 0.284543 0.176550
vt 0.285198 0.311757
vt 0.383614 0.231456
vt 0.373863 0.256225
vt 0.621261 0.241893
vt 0.471601 0.258357
vt 0.501201 0.291802
vt 0.451922 0.237069
vt 0.410015 0.193828
vt 0.328983 0.494892
vt 0.264079 0.556378
vt 0.354414 0.593934
vt 0.246257 0.593494
vt 0.246995 0.585723
vt 0.355025 0.585656
vt 0.392910 0.430311
vt 0.199751 0.050933
vt 0.172404 0.036102
vt 0.243600 0.079358
vt 0.298017 0.086992
vt 0.322906 0.132558
vt 0.367362 0.141761
vt 0.454855 0.360810
vt 0.131538 0.592961
vt 0.131975 0.585881
vt 0.020665 0.592981
vt 0.020669 0.586527
vt 0.131046 0.600948
vt 0.020661 0.600262
vt 0.245424 0.602261
vt 0.353724 0.603274
vt 0.459212 0.594427
vt 0.458281 0.604282
vt 0.161219 0.567816
vt 0.174970 0.556609
vt 0.292672 0.556561
vt 0.277525 0.569595
vt 0.029692 0.566007
vt 0.038720 0.556561
vt 0.349795 0.571657
vt 0.360226 0.557841
vt 0.438410 0.247697
vt 0.372712 0.241189
vt 0.077911 0.206999
vt 0.072202 0.192228
vt 0.146056 0.198121
vt 0.155872 0.212861
vt 0.262379 0.225417
vt 0.253366 0.212511
vt 0.853519 0.342583
vt 0.969632 0.352401
vt 0.734921 0.330772
vt 0.742352 0.313243
vt 0.614592 0.314448
vt 0.623061 0.299041
vt 0.271486 0.238398
vt 0.165683 0.227594
vt 0.083618 0.221771
vt 0.020661 0.219234
vt 0.020661 0.205363
vt 0.339365 0.585473
vt 0.262378 0.582628
vt 0.401750 0.571223
vt 0.398963 0.585266
vt 0.147469 0.579024
vt 0.020661 0.575452
vn -0.9830 -0.0052 0.1837
vn -0.7842 -0.0040 0.6205
vn 0.1607 -0.0797 0.9838
vn 0.3559 -0.1001 0.9291
vn 0.3845 -0.1180 0.9155
vn 0.1802 -0.0892 0.9796
vn -0.1031 -0.0612 -0.9928
vn -0.4343 -0.0638 -0.8985
vn -0.1728 -0.0337 -0.9844
vn 0.9059 -0.2237 -0.3595
vn 0.7387 -0.1368 -0.6600
vn 0.8202 -0.1266 -0.5579
vn 0.9482 -0.2182 -0.2311
vn 0.8923 -0.1819 -0.4131
vn 0.7093 -0.2904 -0.6423
vn 0.7051 -0.1810 -0.6856
vn 0.8809 -0.1856 -0.4355
vn 0.8808 -0.1860 -0.4354
vn 0.8809 -0.1855 -0.4355
vn -0.1730 -0.1157 -0.9781
vn -0.4782 -0.0253 -0.8779
vn -0.4320 -0.0444 -0.9008
vn -0.0989 -0.0906 -0.9910
vn 0.1354 -0.0628 0.9888
vn 0.3666 -0.1019 0.9248
vn 0.3451 -0.0654 0.9363
vn 0.1486 -0.0547 0.9874
vn -0.9821 0.1048 0.1568
vn -0.8094 0.0859 0.5809
vn -0.8023 0.0414 0.5955
vn -0.9842 0.0535 0.1686
vn 0.9726 -0.1660 -0.1625
vn 0.9731 -0.1631 -0.1629
vn 0.9726 -0.1663 -0.1623
vn 0.8672 -0.1006 -0.4876
vn 0.6535 -0.0434 -0.7557
vn 0.7809 -0.0755 -0.6201
vn -0.2534 0.0060 -0.9673
vn -0.5208 -0.0010 -0.8537
vn 0.3353 -0.1166 0.9349
vn 0.3538 -0.1202 0.9276
vn 0.2226 -0.0944 0.9703
vn 0.5438 -0.1538 0.8250
vn 0.6932 -0.1765 0.6988
vn -0.9796 0.0161 0.2001
vn -0.9999 0.0138 -0.0068
vn -0.9999 0.0139 -0.0031
vn -0.3456 -0.0143 0.9383
vn -0.0698 -0.0486 0.9964
vn 0.2929 -0.0053 -0.9561
vn 0.1354 0.0061 -0.9908
vn 0.3732 -0.0113 -0.9277
vn -0.4832 0.0425 0.8744
vn -0.2039 -0.0019 0.9790
vn -0.1899 -0.0232 0.9815
vn -0.4742 0.0097 0.8804
vn 0.5355 -0.2902 -0.7931
vn 0.2573 -0.2257 -0.9396
vn 0.3135 -0.1370 -0.9397
vn 0.5530 -0.1639 -0.8169
vn 0.5425 -0.0813 -0.8361
vn 0.2947 -0.0634 -0.9535
vn 0.2313 -0.0245 -0.9726
vn 0.5374 -0.0451 -0.8421
vn -0.4440 -0.0230 0.8957
vn -0.1636 -0.0510 0.9852
vn -0.1228 -0.0572 0.9908
vn -0.3956 -0.0293 0.9180
vn -0.9061 0.0065 -0.4230
vn -0.9103 0.0067 -0.4139
vn -0.7932 0.0018 -0.6089
vn 0.9828 -0.1835 0.0185
vn -0.8010 0.0508 -0.5965
vn -0.9807 0.0439 -0.1903
vn -0.7852 0.0058 -0.6193
vn 0.5436 -0.0651 0.8368
vn 0.8838 0.0039 0.4678
vn 0.8763 -0.1127 0.4684
vn 0.4682 -0.0592 0.8816
vn 0.5206 -0.1303 0.8438
vn 0.9246 -0.2269 0.3061
vn 0.9655 -0.2335 0.1154
vn 0.6341 -0.1689 0.7545
vn -0.7842 -0.0516 -0.6183
vn -0.7802 -0.0485 -0.6236
vn -0.7803 -0.0489 -0.6235
vn -0.9805 -0.0208 -0.1954
vn -0.9805 -0.0201 -0.1954
vn -0.9782 -0.0326 -0.2050
vn -0.9782 -0.0320 -0.2050
vn -0.7845 -0.0514 -0.6180
vn -0.9782 -0.0332 -0.2050
vn -0.9805 -0.0215 -0.1953
vn -0.9808 0.0424 -0.1902
vn -0.9790 0.0944 -0.1809
vn 0.9731 -0.1626 -0.1629
vn 0.8809 -0.1852 -0.4356
vn 0.8882 -0.2063 -0.4105
vn 0.9499 -0.2028 -0.2378
vn 0.9068 -0.2060 -0.3678
vn -0.7602 -0.0133 0.6496
vn -0.9806 -0.0178 0.1951
vn 0.3562 -0.1007 0.9290
vn 0.3563 -0.1009 0.9289
vn 0.3557 -0.0995 0.9293
vn 0.3836 -0.1159 0.9162
vn 0.3853 -0.1203 0.9149
vn 0.3857 -0.1211 0.9147
vn -0.4780 -0.0520 -0.8768
vn 0.3441 -0.0625 0.9369
vn -0.7414 0.0100 0.6710
vn 0.5004 -0.0103 -0.8657
vn 0.5029 -0.0195 -0.8641
vn 0.5520 -0.1606 -0.8182
vn 0.5542 -0.1684 -0.8152
vn 0.5538 -0.1672 -0.8157
vn 0.5431 -0.0829 -0.8356
vn 0.5418 -0.0798 -0.8367
vn 0.5434 -0.0836 -0.8353
vn 0.5375 -0.0453 -0.8421
vn 0.5374 -0.0450 -0.8421
vn 0.7775 -0.1878 0.6002
vn -0.9788 0.0955 -0.1810
vn -0.9808 0.0431 -0.1903
vn -0.9805 -0.0209 -0.1954
vn -0.9782 -0.0327 -0.2050
vn 0.5373 -0.0448 -0.8422
vn 0.5416 -0.0791 -0.8369
vn 0.5519 -0.1596 -0.8185
vn 0.5350 -0.2774 -0.7980
vn 0.3460 -0.0681 0.9358
vn 0.3669 -0.1048 0.9244
vn 0.3833 -0.1150 0.9164
vn 0.3556 -0.0993 0.9294
usemtl Material.003
s 1
f 1/1/1 2/2/1 3/3/1 4/4/1
f 1/1/2 5/5/2 6/6/2 2/2/2
f 7/7/3 8/8/3 9/9/3 10/10/3
f 7/11/4 11/12/4 12/13/4 8/14/4
f 7/11/5 13/15/5 14/16/5 11/12/5
f 7/7/6 10/10/6 15/17/6 13/15/6
f 16/18/7 17/19/7 18/20/7 19/21/7
f 16/18/8 20/22/8 21/23/8 17/19/8
f 16/18/9 19/21/9 22/24/9 23/25/9
f 24/26/10 25/27/10 26/28/10 27/29/10
f 28/30/11 29/31/11 30/32/11 31/33/11
f 28/30/12 32/34/12 33/35/12 29/31/12
f 24/26/13 27/29/13 34/36/13 35/37/13
f 36/38/14 37/39/14 38/40/14 39/41/14
f 40/42/15 41/43/15 42/44/15 43/45/15
f 40/42/16 31/33/16 30/32/16 41/43/16
f 36/38/17 39/41/18 26/28/18 25/27/19
f 44/46/20 45/47/20 46/48/20 47/49/20
f 44/46/21 48/50/21 49/51/21 45/47/21
f 44/46/22 17/19/22 21/23/22 48/50/22
f 44/46/23 47/49/23 18/20/23 17/19/23
f 50/52/24 51/53/24 52/54/24 53/55/24
f 50/56/25 54/57/25 55/58/25 51/59/25
f 50/56/26 8/14/26 12/13/26 54/57/26
f 50/52/27 53/55/27 9/9/27 8/8/27
f 56/60/28 57/61/28 58/62/28 59/63/28
f 56/60/29 60/64/29 61/65/29 57/61/29
f 56/60/30 2/2/30 6/6/30 60/64/30
f 56/60/31 59/63/31 3/3/31 2/2/31
f 62/66/32 35/37/33 34/36/34 63/67/34
f 64/68/35 65/69/36 33/35/37 32/34/35
f 66/70/38 23/25/38 22/24/38 67/71/38
f 66/70/39 68/72/39 69/73/39 23/25/39
f 70/74/40 13/15/41 15/17/42 71/75/42
f 70/74/40 72/76/43 14/16/44 13/15/41
f 73/77/45 74/78/45 75/79/46 76/80/47
f 77/81/48 78/82/48 79/83/48 80/84/48
f 77/81/49 71/75/49 15/17/49 78/82/49
f 81/85/50 67/71/51 22/24/51 82/86/52
f 83/87/53 84/88/53 61/65/53 60/64/53
f 83/87/54 53/55/54 52/54/54 84/88/54
f 83/87/55 85/89/55 9/9/55 53/55/55
f 83/87/56 60/64/56 6/6/56 85/89/56
f 86/90/57 87/91/57 42/44/57 41/43/57
f 86/92/58 47/49/58 46/48/58 87/93/58
f 86/92/59 88/94/59 18/20/59 47/49/59
f 86/90/60 41/43/60 30/95/60 88/96/60
f 89/97/61 88/96/61 30/95/61 29/98/61
f 89/99/62 19/21/62 18/20/62 88/94/62
f 89/99/63 82/86/63 22/24/63 19/21/63
f 89/97/64 29/98/64 33/100/64 82/101/64
f 90/102/65 85/89/65 6/6/65 5/5/65
f 90/102/66 10/10/66 9/9/66 85/89/66
f 90/102/67 78/82/67 15/17/67 10/10/67
f 90/102/68 5/5/68 79/83/68 78/82/68
f 91/103/69 92/104/70 69/73/71 68/72/71
f 93/105/72 63/67/72 34/36/72 94/106/72
f 95/107/73 96/108/73 49/51/73 48/50/73
f 97/109/74 98/110/74 3/111/74 59/112/74
f 95/107/75 48/50/75 21/23/75 99/113/75
f 100/114/76 101/115/76 55/58/76 54/57/76
f 100/114/77 39/41/77 38/40/77 101/115/77
f 100/114/78 102/116/78 26/28/78 39/41/78
f 100/114/79 54/57/79 12/117/79 102/116/79
f 103/118/80 102/116/80 12/117/80 11/119/80
f 103/118/81 27/29/81 26/28/81 102/116/81
f 103/118/82 94/106/82 34/36/82 27/29/82
f 103/118/83 11/119/83 14/16/83 94/106/83
f 104/120/84 99/113/85 21/23/85 20/22/86
f 105/121/87 4/122/88 3/111/88 98/110/87
f 105/121/89 106/123/89 75/124/90 4/122/90
f 104/120/84 20/22/86 69/73/91 92/104/91
f 104/125/92 92/126/92 106/123/89 105/121/89
f 104/125/93 105/121/87 98/110/87 99/127/93
f 95/128/94 99/127/94 98/110/94 97/109/94
f 95/128/95 97/109/95 107/129/95 96/130/95
f 64/68/96 32/34/96 35/37/33 62/66/32
f 40/42/97 36/38/17 25/27/19 31/33/97
f 40/42/98 43/45/98 37/39/98 36/38/98
f 28/30/99 24/26/99 35/37/99 32/34/99
f 28/30/100 31/33/100 25/27/100 24/26/100
f 1/1/101 74/78/101 79/83/101 5/5/101
f 1/1/102 4/4/102 75/79/102 74/78/102
f 108/131/103 11/132/104 12/133/104 109/134/105
f 108/131/106 110/135/107 14/136/108 11/132/108
f 16/18/109 23/25/109 69/73/109 20/22/109
f 111/137/110 109/134/110 12/133/110 54/138/110
f 73/77/111 80/84/111 79/83/111 74/78/111
f 112/139/112 113/140/113 33/35/37 65/69/36
f 114/141/114 41/142/115 30/143/115 115/144/116
f 116/145/117 115/144/118 30/143/119 29/146/119
f 116/145/64 29/146/120 33/35/120 113/140/121
f 91/103/69 76/80/47 75/79/46 92/104/70
f 93/105/122 94/106/122 14/16/44 72/76/43
f 95/147/123 59/63/123 58/62/123 96/148/123
f 95/147/124 99/149/124 3/150/124 59/63/124
f 104/151/125 4/152/125 3/150/125 99/149/125
f 104/151/126 92/104/126 75/79/126 4/152/126
f 89/153/127 116/145/64 113/140/121 82/86/127
f 89/153/128 88/154/128 115/144/118 116/145/117
f 86/155/129 114/141/114 115/144/116 88/154/129
f 86/155/130 87/156/130 117/157/130 114/141/130
f 81/85/50 82/86/52 113/140/113 112/139/112
f 50/158/131 8/159/131 109/134/131 111/137/131
f 50/158/132 111/137/132 118/160/132 51/161/132
f 7/162/133 13/163/133 110/135/107 108/131/106
f 7/162/134 108/131/103 109/134/105 8/159/134
l 110 120
l 119 106
